# 3ds Max Wavefront OBJ Exporter v0.97b - (c)2007 guruware
# File Created: 28.02.2019 19:33:28

mtllib MusclePowder2.mtl

#
# object Cylinder001
#

v  6.2214 0.0000 2.2644
v  5.0717 0.0000 4.2557
v  3.3103 0.0000 5.7337
v  1.1497 0.0000 6.5201
v  -1.1497 0.0000 6.5201
v  -3.3103 0.0000 5.7337
v  -5.0717 0.0000 4.2557
v  -6.2214 0.0000 2.2644
v  -6.6207 0.0000 -0.0000
v  -6.2214 0.0000 -2.2644
v  -5.0717 0.0000 -4.2557
v  -3.3103 0.0000 -5.7337
v  -1.1497 0.0000 -6.5201
v  1.1497 0.0000 -6.5201
v  3.3103 0.0000 -5.7337
v  5.0717 0.0000 -4.2557
v  6.2214 0.0000 -2.2644
v  6.6207 0.0000 -0.0000
v  6.2214 13.6177 -2.2644
v  6.6207 13.6177 -0.0000
v  5.0717 13.6177 -4.2557
v  3.3103 13.6177 -5.7337
v  1.1497 13.6177 -6.5201
v  -1.1497 13.6177 -6.5201
v  -3.3103 13.6177 -5.7337
v  -5.0717 13.6177 -4.2557
v  -6.2214 13.6177 -2.2644
v  -6.6207 13.6177 -0.0000
v  -6.2214 13.6177 2.2644
v  -5.0717 13.6177 4.2557
v  -3.3103 13.6177 5.7337
v  -1.1497 13.6177 6.5201
v  1.1497 13.6177 6.5201
v  3.3103 13.6177 5.7337
v  5.0717 13.6177 4.2557
v  6.2214 13.6177 2.2644
v  1.5425 18.9135 -0.5614
v  1.6415 18.9135 0.0000
v  1.2574 18.9135 -1.0551
v  0.8207 18.9135 -1.4215
v  0.2850 18.9135 -1.6165
v  -0.2850 18.9135 -1.6165
v  -0.8207 18.9135 -1.4215
v  -1.2574 18.9135 -1.0551
v  -1.5425 18.9135 -0.5614
v  -1.6415 18.9135 -0.0000
v  -1.5425 18.9135 0.5614
v  -1.2574 18.9135 1.0551
v  -0.8207 18.9135 1.4215
v  -0.2850 18.9135 1.6165
v  0.2850 18.9135 1.6165
v  0.8207 18.9135 1.4215
v  1.2574 18.9135 1.0551
v  1.5425 18.9135 0.5614
v  1.5425 20.8809 -0.5614
v  1.6415 20.8809 0.0000
v  1.2574 20.8809 -1.0551
v  0.8207 20.8809 -1.4215
v  0.2850 20.8809 -1.6165
v  -0.2850 20.8809 -1.6165
v  -0.8207 20.8809 -1.4215
v  -1.2574 20.8809 -1.0551
v  -1.5425 20.8809 -0.5614
v  -1.6415 20.8809 -0.0000
v  -1.5425 20.8809 0.5614
v  -1.2574 20.8809 1.0551
v  -0.8207 20.8809 1.4215
v  -0.2850 20.8809 1.6165
v  0.2850 20.8809 1.6165
v  0.8207 20.8809 1.4215
v  1.2574 20.8809 1.0551
v  1.5425 20.8809 0.5614
v  1.0031 20.8809 -0.3651
v  1.0675 20.8809 0.0000
v  0.8178 20.8809 -0.6862
v  0.5338 20.8809 -0.9245
v  0.1854 20.8809 -1.0513
v  -0.1854 20.8809 -1.0513
v  -0.5338 20.8809 -0.9245
v  -0.8178 20.8809 -0.6862
v  -1.0031 20.8809 -0.3651
v  -1.0675 20.8809 0.0000
v  -1.0031 20.8809 0.3651
v  -0.8178 20.8809 0.6862
v  -0.5338 20.8809 0.9245
v  -0.1854 20.8809 1.0513
v  0.1854 20.8809 1.0513
v  0.5338 20.8809 0.9245
v  0.8178 20.8809 0.6862
v  1.0031 20.8809 0.3651
v  5.0717 1.8191 -5.6341
v  3.3103 1.8191 -7.1121
v  3.3103 11.7986 -7.1121
v  5.0717 11.7986 -5.6341
v  1.1497 1.8191 -7.8985
v  1.1497 11.7986 -7.8985
v  -1.1497 1.8191 -7.8985
v  -1.1497 11.7986 -7.8985
v  -3.3103 1.8191 -7.1121
v  -3.3103 11.7986 -7.1121
v  -5.0717 1.8191 -5.6341
v  -5.0717 11.7986 -5.6341
v  5.0717 1.8191 -1.5887
v  3.3103 1.8191 -3.0667
v  3.3103 11.7986 -3.0667
v  5.0717 11.7986 -1.5887
v  1.1497 1.8191 -3.8531
v  1.1497 11.7986 -3.8531
v  -1.1497 1.8191 -3.8531
v  -1.1497 11.7986 -3.8531
v  -3.3103 1.8191 -3.0667
v  -3.3103 11.7986 -3.0667
v  -5.0717 1.8191 -1.5887
v  -5.0717 11.7986 -1.5887
# 114 vertices

vn 0.6975 -0.6701 0.2539
vn 0.5686 -0.6701 0.4772
vn 0.3712 -0.6700 0.6429
vn 0.1289 -0.6700 0.7311
vn -0.1289 -0.6700 0.7311
vn -0.3712 -0.6700 0.6429
vn -0.5687 -0.6700 0.4772
vn -0.6976 -0.6700 0.2539
vn -0.7423 -0.6701 0.0000
vn -0.6975 -0.6701 -0.2539
vn -0.5687 -0.6700 -0.4772
vn -0.3712 -0.6700 -0.6429
vn -0.1289 -0.6700 -0.7311
vn 0.1289 -0.6700 -0.7311
vn 0.3712 -0.6700 -0.6429
vn 0.5687 -0.6700 -0.4772
vn 0.6975 -0.6701 -0.2539
vn 0.7423 -0.6701 0.0000
vn 0.8784 0.3551 -0.3197
vn 0.9348 0.3552 0.0000
vn 0.7161 0.3552 -0.6009
vn 0.4674 0.3552 -0.8096
vn 0.1623 0.3552 -0.9206
vn -0.1623 0.3552 -0.9206
vn -0.4674 0.3552 -0.8096
vn -0.7161 0.3552 -0.6009
vn -0.8784 0.3552 -0.3197
vn -0.9348 0.3552 0.0000
vn -0.8784 0.3552 0.3197
vn -0.7161 0.3552 0.6009
vn -0.4674 0.3552 0.8096
vn -0.1623 0.3552 0.9206
vn 0.1623 0.3552 0.9206
vn 0.4674 0.3552 0.8096
vn 0.7161 0.3552 0.6009
vn 0.8784 0.3552 0.3197
vn 0.8680 0.3831 -0.3159
vn 0.9237 0.3831 0.0000
vn 0.7076 0.3831 -0.5937
vn 0.4618 0.3832 -0.7999
vn 0.1604 0.3832 -0.9096
vn -0.1604 0.3832 -0.9096
vn -0.4618 0.3832 -0.7999
vn -0.7076 0.3831 -0.5937
vn -0.8680 0.3831 -0.3159
vn -0.9237 0.3832 -0.0000
vn -0.8680 0.3832 0.3159
vn -0.7076 0.3832 0.5937
vn -0.4618 0.3832 0.7999
vn -0.1604 0.3832 0.9096
vn 0.1604 0.3831 0.9097
vn 0.4618 0.3831 0.7999
vn 0.7076 0.3832 0.5937
vn 0.8680 0.3832 0.3159
vn 0.6976 0.6700 -0.2539
vn 0.7423 0.6700 0.0000
vn 0.5687 0.6700 -0.4772
vn 0.3712 0.6701 -0.6428
vn 0.1289 0.6701 -0.7310
vn -0.1289 0.6701 -0.7310
vn -0.3712 0.6701 -0.6428
vn -0.5687 0.6700 -0.4772
vn -0.6976 0.6700 -0.2539
vn -0.7423 0.6701 -0.0000
vn -0.6975 0.6701 0.2539
vn -0.5686 0.6701 0.4771
vn -0.3711 0.6701 0.6428
vn -0.1289 0.6701 0.7310
vn 0.1289 0.6700 0.7311
vn 0.3712 0.6700 0.6429
vn 0.5686 0.6701 0.4772
vn 0.6975 0.6701 0.2539
vn 0.0000 1.0000 -0.0000
vn 0.7088 -0.6232 -0.3305
vn 0.3712 0.6700 -0.6429
vn 0.7088 0.6232 -0.3305
vn 0.1289 0.6700 -0.7311
vn -0.1289 0.6700 -0.7311
vn -0.3712 0.6700 -0.6429
vn -0.7088 -0.6232 -0.3305
vn -0.7088 0.6232 -0.3305
vn 0.8742 -0.4856 -0.0000
vn 0.0000 -1.0000 -0.0000
vn 0.8742 0.4856 -0.0000
vn -0.8742 -0.4856 -0.0000
vn -0.8742 0.4856 -0.0000
# 86 vertex normals

vt 0.3400 0.0000 0.0000
vt 0.1953 0.0000 -0.3473
vt 0.0874 0.0000 -0.6527
vt 0.0292 0.0000 -0.8794
vt 0.0278 0.0000 -1.0000
vt 0.0833 0.0000 -1.0000
vt 0.1891 0.0000 -0.8794
vt 0.3325 0.0000 -0.6527
vt 0.4960 0.0000 -0.3473
vt 0.6600 0.0000 0.0000
vt 0.8047 0.0000 0.3473
vt 0.9126 0.0000 0.6527
vt 0.9708 0.0000 0.8794
vt 0.9722 0.0000 1.0000
vt 0.9167 0.0000 1.0000
vt 0.8611 0.0000 1.0000
vt 0.8056 0.0000 1.0000
vt 0.7500 0.0000 1.0000
vt 0.8056 0.7200 1.0000
vt 0.7500 0.7200 1.0000
vt 0.8611 0.7200 1.0000
vt 0.9167 0.7200 1.0000
vt 0.9722 0.7200 1.0000
vt -0.0278 0.0000 1.0000
vt 0.0278 0.0000 1.0000
vt 0.0278 0.7200 1.0000
vt -0.0278 0.7200 1.0000
vt 0.0833 0.0000 1.0000
vt 0.0833 0.7200 1.0000
vt 0.1389 0.0000 1.0000
vt 0.1389 0.7200 1.0000
vt 0.1944 0.0000 1.0000
vt 0.1944 0.7200 1.0000
vt 0.2500 0.0000 1.0000
vt 0.2500 0.7200 1.0000
vt 0.3056 0.0000 1.0000
vt 0.3056 0.7200 1.0000
vt 0.3611 0.0000 1.0000
vt 0.3611 0.7200 1.0000
vt 0.4167 0.0000 1.0000
vt 0.4167 0.7200 1.0000
vt 0.4722 0.0000 1.0000
vt 0.4722 0.7200 1.0000
vt 0.5278 0.0000 1.0000
vt 0.5278 0.7200 1.0000
vt 0.5833 0.0000 1.0000
vt 0.5833 0.7200 1.0000
vt 0.6389 0.0000 1.0000
vt 0.6389 0.7200 1.0000
vt 0.6944 0.0000 1.0000
vt 0.6944 0.7200 1.0000
vt 0.8056 1.0000 1.0000
vt 0.7500 1.0000 1.0000
vt 0.8611 1.0000 1.0000
vt 0.9167 1.0000 1.0000
vt 0.9722 1.0000 1.0000
vt 0.0278 1.0000 1.0000
vt -0.0278 1.0000 1.0000
vt 0.0833 1.0000 1.0000
vt 0.1389 1.0000 1.0000
vt 0.1944 1.0000 1.0000
vt 0.2500 1.0000 1.0000
vt 0.3056 1.0000 1.0000
vt 0.3611 1.0000 1.0000
vt 0.4167 1.0000 1.0000
vt 0.4722 1.0000 1.0000
vt 0.5278 1.0000 1.0000
vt 0.5833 1.0000 1.0000
vt 0.6389 1.0000 1.0000
vt 0.6944 1.0000 1.0000
# 70 texture coords

o Cylinder001
g Cylinder001
usemtl wire_006135113
s 1
f 1/1/1 2/2/2 3/3/3 4/4/4 5/5/5 6/6/6 7/7/7 8/8/8 9/9/9 10/10/10 11/11/11 12/12/12 13/13/13 14/14/14 15/15/15 16/16/16 17/17/17 18/18/18 
s 2
f 18/18/18 17/17/17 19/19/19 20/20/20 
f 17/17/17 16/16/16 21/21/21 19/19/19 
f 16/16/16 15/15/15 22/22/22 21/21/21 
f 15/15/15 14/14/14 23/23/23 22/22/22 
f 14/24/14 13/25/13 24/26/24 23/27/23 
f 13/25/13 12/28/12 25/29/25 24/26/24 
f 12/28/12 11/30/11 26/31/26 25/29/25 
f 11/30/11 10/32/10 27/33/27 26/31/26 
f 10/32/10 9/34/9 28/35/28 27/33/27 
f 9/34/9 8/36/8 29/37/29 28/35/28 
f 8/36/8 7/38/7 30/39/30 29/37/29 
f 7/38/7 6/40/6 31/41/31 30/39/30 
f 6/40/6 5/42/5 32/43/32 31/41/31 
f 5/42/5 4/44/4 33/45/33 32/43/32 
f 4/44/4 3/46/3 34/47/34 33/45/33 
f 3/46/3 2/48/2 35/49/35 34/47/34 
f 2/48/2 1/50/1 36/51/36 35/49/35 
f 1/50/1 18/18/18 20/20/20 36/51/36 
f 19/19/19 37/52/37 38/53/38 20/20/20 
f 21/21/21 39/54/39 37/52/37 19/19/19 
f 22/22/22 40/55/40 39/54/39 21/21/21 
f 23/23/23 41/56/41 40/55/40 22/22/22 
f 24/26/24 42/57/42 41/58/41 23/27/23 
f 25/29/25 43/59/43 42/57/42 24/26/24 
f 26/31/26 44/60/44 43/59/43 25/29/25 
f 27/33/27 45/61/45 44/60/44 26/31/26 
f 28/35/28 46/62/46 45/61/45 27/33/27 
f 29/37/29 47/63/47 46/62/46 28/35/28 
f 30/39/30 48/64/48 47/63/47 29/37/29 
f 31/41/31 49/65/49 48/64/48 30/39/30 
f 32/43/32 50/66/50 49/65/49 31/41/31 
f 33/45/33 51/67/51 50/66/50 32/43/32 
f 34/47/34 52/68/52 51/67/51 33/45/33 
f 35/49/35 53/69/53 52/68/52 34/47/34 
f 36/51/36 54/70/54 53/69/53 35/49/35 
f 20/20/20 38/53/38 54/70/54 36/51/36 
f 38/53/38 37/52/37 55/52/55 56/53/56 
f 37/52/37 39/54/39 57/54/57 55/52/55 
f 39/54/39 40/55/40 58/55/58 57/54/57 
f 40/55/40 41/56/41 59/56/59 58/55/58 
f 41/58/41 42/57/42 60/57/60 59/58/59 
f 42/57/42 43/59/43 61/59/61 60/57/60 
f 43/59/43 44/60/44 62/60/62 61/59/61 
f 44/60/44 45/61/45 63/61/63 62/60/62 
f 45/61/45 46/62/46 64/62/64 63/61/63 
f 46/62/46 47/63/47 65/63/65 64/62/64 
f 47/63/47 48/64/48 66/64/66 65/63/65 
f 48/64/48 49/65/49 67/65/67 66/64/66 
f 49/65/49 50/66/50 68/66/68 67/65/67 
f 50/66/50 51/67/51 69/67/69 68/66/68 
f 51/67/51 52/68/52 70/68/70 69/67/69 
f 52/68/52 53/69/53 71/69/71 70/68/70 
f 53/69/53 54/70/54 72/70/72 71/69/71 
f 54/70/54 38/53/38 56/53/56 72/70/72 
s 1
f 56/53/56 55/52/55 73/52/73 74/53/73 
f 55/52/55 57/54/57 75/54/73 73/52/73 
f 57/54/57 58/55/58 76/55/73 75/54/73 
f 58/55/58 59/56/59 77/56/73 76/55/73 
f 59/58/59 60/57/60 78/57/73 77/58/73 
f 60/57/60 61/59/61 79/59/73 78/57/73 
f 61/59/61 62/60/62 80/60/73 79/59/73 
f 62/60/62 63/61/63 81/61/73 80/60/73 
f 63/61/63 64/62/64 82/62/73 81/61/73 
f 64/62/64 65/63/65 83/63/73 82/62/73 
f 65/63/65 66/64/66 84/64/73 83/63/73 
f 66/64/66 67/65/67 85/65/73 84/64/73 
f 67/65/67 68/66/68 86/66/73 85/65/73 
f 68/66/68 69/67/69 87/67/73 86/66/73 
f 69/67/69 70/68/70 88/68/73 87/67/73 
f 70/68/70 71/69/71 89/69/73 88/68/73 
f 71/69/71 72/70/72 90/70/73 89/69/73 
f 72/70/72 56/53/56 74/53/73 90/70/73 
s 2
f 91/16/74 92/15/15 93/22/75 94/21/76 
f 92/15/15 95/14/14 96/23/77 93/22/75 
f 95/24/14 97/25/13 98/26/78 96/27/77 
f 97/25/13 99/28/12 100/29/79 98/26/78 
f 99/28/12 101/30/80 102/31/81 100/29/79 
s off
f 92/15/15 91/16/74 103/16/82 104/15/83 
f 94/21/76 93/22/75 105/22/73 106/21/84 
f 91/16/74 94/21/76 106/21/84 103/16/82 
f 95/14/14 92/15/15 104/15/83 107/14/83 
f 93/22/75 96/23/77 108/23/73 105/22/73 
f 97/25/13 95/24/14 107/24/83 109/25/83 
f 96/27/77 98/26/78 110/26/73 108/27/73 
f 99/28/12 97/25/13 109/25/83 111/28/83 
f 98/26/78 100/29/79 112/29/73 110/26/73 
f 101/30/80 99/28/12 111/28/83 113/30/85 
f 102/31/81 101/30/80 113/30/85 114/31/86 
f 100/29/79 102/31/81 114/31/86 112/29/73 
# 90 polygons

