# 3ds Max Wavefront OBJ Exporter v0.97b - (c)2007 guruware
# File Created: 28.02.2019 19:33:17

mtllib MusclePowder1.mtl

#
# object Cylinder002
#

v  1.2250 20.7294 -0.0000
v  1.1512 20.7294 -0.4190
v  1.1512 22.4895 -0.4190
v  1.2250 22.4895 -0.0000
v  0.9384 20.7294 -0.7874
v  0.9384 22.4895 -0.7874
v  0.6125 20.7294 -1.0609
v  0.6125 22.4895 -1.0609
v  0.2127 20.7294 -1.2064
v  0.2127 22.4895 -1.2064
v  -0.2127 20.7294 -1.2064
v  -0.2127 22.4895 -1.2064
v  -0.6125 20.7294 -1.0609
v  -0.6125 22.4895 -1.0609
v  -0.9384 20.7294 -0.7874
v  -0.9384 22.4895 -0.7874
v  -1.1512 20.7294 -0.4190
v  -1.1512 22.4895 -0.4190
v  -1.2250 20.7294 -0.0000
v  -1.2250 22.4895 -0.0000
v  -1.1512 20.7294 0.4190
v  -1.1512 22.4895 0.4190
v  -0.9384 20.7294 0.7874
v  -0.9384 22.4895 0.7874
v  -0.6125 20.7294 1.0609
v  -0.6125 22.4895 1.0609
v  -0.2127 20.7294 1.2064
v  -0.2127 22.4895 1.2064
v  0.2127 20.7294 1.2064
v  0.2127 22.4895 1.2064
v  0.6125 20.7294 1.0609
v  0.6125 22.4895 1.0609
v  0.9384 20.7294 0.7874
v  0.9384 22.4895 0.7874
v  1.1512 20.7294 0.4190
v  1.1512 22.4895 0.4190
# 36 vertices

vn 1.0000 0.0000 0.0000
vn 0.9397 0.0000 -0.3420
vn 0.6975 0.6701 -0.2539
vn 0.7423 0.6701 0.0000
vn 0.7660 0.0000 -0.6428
vn 0.5687 0.6700 -0.4772
vn 0.5000 0.0000 -0.8660
vn 0.3712 0.6700 -0.6429
vn 0.1736 0.0000 -0.9848
vn 0.1289 0.6700 -0.7311
vn -0.1736 0.0000 -0.9848
vn -0.1289 0.6700 -0.7311
vn -0.5000 0.0000 -0.8660
vn -0.3711 0.6701 -0.6429
vn -0.7661 0.0000 -0.6428
vn -0.5686 0.6701 -0.4771
vn -0.9397 0.0000 -0.3420
vn -0.6976 0.6700 -0.2539
vn -1.0000 0.0000 -0.0000
vn -0.7423 0.6700 -0.0000
vn -0.9397 0.0000 0.3420
vn -0.6976 0.6700 0.2539
vn -0.7660 0.0000 0.6428
vn -0.5687 0.6700 0.4772
vn -0.5000 0.0000 0.8660
vn -0.3712 0.6700 0.6429
vn -0.1736 0.0000 0.9848
vn -0.1289 0.6700 0.7311
vn 0.1736 0.0000 0.9848
vn 0.1289 0.6700 0.7311
vn 0.5000 0.0000 0.8660
vn 0.3712 0.6700 0.6429
vn 0.7660 0.0000 0.6428
vn 0.5687 0.6700 0.4772
vn 0.9397 0.0000 0.3420
vn 0.6975 0.6701 0.2539
# 36 vertex normals

vt 0.7500 0.0000 1.0000
vt 0.8056 0.0000 1.0000
vt 0.8056 1.0000 1.0000
vt 0.7500 1.0000 1.0000
vt 0.8611 0.0000 1.0000
vt 0.8611 1.0000 1.0000
vt 0.9167 0.0000 1.0000
vt 0.9167 1.0000 1.0000
vt 0.9722 0.0000 1.0000
vt 0.9722 1.0000 1.0000
vt -0.0278 0.0000 1.0000
vt 0.0278 0.0000 1.0000
vt 0.0278 1.0000 1.0000
vt -0.0278 1.0000 1.0000
vt 0.0833 0.0000 1.0000
vt 0.0833 1.0000 1.0000
vt 0.1389 0.0000 1.0000
vt 0.1389 1.0000 1.0000
vt 0.1944 0.0000 1.0000
vt 0.1944 1.0000 1.0000
vt 0.2500 0.0000 1.0000
vt 0.2500 1.0000 1.0000
vt 0.3056 0.0000 1.0000
vt 0.3056 1.0000 1.0000
vt 0.3611 0.0000 1.0000
vt 0.3611 1.0000 1.0000
vt 0.4167 0.0000 1.0000
vt 0.4167 1.0000 1.0000
vt 0.4722 0.0000 1.0000
vt 0.4722 1.0000 1.0000
vt 0.5278 0.0000 1.0000
vt 0.5278 1.0000 1.0000
vt 0.5833 0.0000 1.0000
vt 0.5833 1.0000 1.0000
vt 0.6389 0.0000 1.0000
vt 0.6389 1.0000 1.0000
vt 0.6944 0.0000 1.0000
vt 0.6944 1.0000 1.0000
vt 0.9708 1.0000 0.8794
vt 0.9126 1.0000 0.6527
vt 0.8047 1.0000 0.3473
vt 0.6600 1.0000 0.0000
vt 0.4960 1.0000 -0.3473
vt 0.3325 1.0000 -0.6527
vt 0.1891 1.0000 -0.8794
vt 0.0833 1.0000 -1.0000
vt 0.0278 1.0000 -1.0000
vt 0.0292 1.0000 -0.8794
vt 0.0874 1.0000 -0.6527
vt 0.1953 1.0000 -0.3473
# 50 texture coords

o Cylinder002
g Cylinder002
usemtl wire_225143087
s 8
f 1/1/1 2/2/2 3/3/3 4/4/4 
f 2/2/2 5/5/5 6/6/6 3/3/3 
f 5/5/5 7/7/7 8/8/8 6/6/6 
f 7/7/7 9/9/9 10/10/10 8/8/8 
f 9/11/9 11/12/11 12/13/12 10/14/10 
f 11/12/11 13/15/13 14/16/14 12/13/12 
f 13/15/13 15/17/15 16/18/16 14/16/14 
f 15/17/15 17/19/17 18/20/18 16/18/16 
f 17/19/17 19/21/19 20/22/20 18/20/18 
f 19/21/19 21/23/21 22/24/22 20/22/20 
f 21/23/21 23/25/23 24/26/24 22/24/22 
f 23/25/23 25/27/25 26/28/26 24/26/24 
f 25/27/25 27/29/27 28/30/28 26/28/26 
f 27/29/27 29/31/29 30/32/30 28/30/28 
f 29/31/29 31/33/31 32/34/32 30/32/30 
f 31/33/31 33/35/33 34/36/34 32/34/32 
f 33/35/33 35/37/35 36/38/36 34/36/34 
f 35/37/35 1/1/1 4/4/4 36/38/36 
s 1
f 36/38/36 4/4/4 3/3/3 6/6/6 8/8/8 10/10/10 12/39/12 14/40/14 16/41/16 18/42/18 20/43/20 22/44/22 24/45/24 26/46/26 28/47/28 30/48/30 32/49/32 34/50/34 
# 19 polygons

